<svg width="86" height="22" viewBox="0 0 86 22" fill="none" xmlns="http://www.w3.org/2000/svg">
<path d="M8.00379 20.598C7.77846 20.598 7.62246 20.5373 7.53579 20.416C7.46646 20.312 7.43179 20.13 7.43179 19.87V17.504C7.43179 16.3253 7.39712 14.8953 7.32779 13.214C7.31046 12.902 7.30179 12.4513 7.30179 11.862C7.24979 10.6313 7.22379 9.66067 7.22379 8.95L7.24979 7.494C7.26712 7.06067 7.27579 6.57533 7.27579 6.038C7.27579 5.57 7.26712 5.154 7.24979 4.79C7.23246 4.53 7.21512 4.31333 7.19779 4.14C7.19779 3.96667 7.18912 3.828 7.17179 3.724L7.11979 3.906C6.92912 5.17133 6.64312 6.83533 6.26179 8.898C5.88046 10.9607 5.56846 12.616 5.32579 13.864C5.08312 14.9733 4.92712 15.762 4.85779 16.23C4.82312 16.4553 4.74512 16.6373 4.62379 16.776C4.51979 16.9147 4.39846 16.984 4.25979 16.984C4.12112 16.984 3.99979 16.9147 3.89579 16.776C3.79179 16.6373 3.73112 16.438 3.71379 16.178C3.59246 15.346 3.15046 13.0233 2.38779 9.21C1.62512 5.39667 1.20046 3.42067 1.11379 3.282C1.06179 4.842 1.03579 6.59267 1.03579 8.534C1.03579 10.0593 1.04446 11.4373 1.06179 12.668C1.07912 13.8987 1.08779 15.2767 1.08779 16.802C1.08779 17.062 1.11379 17.4693 1.16579 18.024L1.21779 19.272C1.21779 19.6013 1.15712 19.8267 1.03579 19.948C0.533123 19.948 0.281789 19.4973 0.281789 18.596V14.254L0.307789 11.628C0.325122 10.848 0.333789 9.964 0.333789 8.976C0.333789 7.832 0.342456 6.80933 0.359789 5.908L0.411789 2.814V0.526C0.411789 0.439333 0.446456 0.361333 0.515789 0.292C0.602456 0.222666 0.689123 0.187999 0.775789 0.187999C0.914456 0.187999 1.00979 0.257333 1.06179 0.396C1.21779 0.915999 1.60779 2.45 2.23179 4.998C2.85579 7.546 3.32379 9.51333 3.63579 10.9C3.79179 11.7147 4.04312 13.1533 4.38979 15.216L4.57179 14.202C4.62379 13.89 4.70179 13.4567 4.80579 12.902C5.01379 11.55 5.14379 10.7873 5.19579 10.614L6.39179 4.244L6.62579 2.892L6.91179 1.436L7.04179 0.656C7.05912 0.482666 7.11112 0.352666 7.19779 0.265998C7.28446 0.161999 7.37979 0.109999 7.48379 0.109999C7.57046 0.109999 7.64846 0.153332 7.71779 0.239999C7.78712 0.326665 7.82179 0.447999 7.82179 0.603999V3.178C7.82179 4.478 7.89979 6.44533 8.05579 9.08C8.17712 11.5067 8.23779 13.4567 8.23779 14.93C8.23779 15.398 8.26379 16.1173 8.31579 17.088C8.35046 18.336 8.36779 19.2027 8.36779 19.688C8.36779 20.0693 8.34179 20.3207 8.28979 20.442C8.22046 20.546 8.12512 20.598 8.00379 20.598ZM12.658 20.338C12.346 20.338 12.1727 20.156 12.138 19.792V19.454C12.1553 19.3673 12.164 19.2633 12.164 19.142L12.06 19.038C12.1987 18.674 12.268 18.3187 12.268 17.972C12.268 17.5733 12.242 17.0013 12.19 16.256L12.138 14.54C12.138 13.6733 12.164 12.3733 12.216 10.64C12.2853 9.09733 12.32 7.78867 12.32 6.714L12.268 5.154C12.2333 4.686 12.216 4.166 12.216 3.594C12.216 3.334 12.2767 3.152 12.398 3.048C12.5193 2.92667 12.71 2.866 12.97 2.866C13.1433 2.866 13.282 2.918 13.386 3.022C13.4207 3.03933 13.672 3.074 14.14 3.126C14.5733 3.178 14.946 3.256 15.258 3.36C15.5873 3.464 15.752 3.594 15.752 3.75C15.752 3.92333 15.5873 4.09667 15.258 4.27C14.27 3.94067 13.568 3.776 13.152 3.776L13.022 3.932C13.0393 4.088 13.048 4.46067 13.048 5.05C13.048 5.79533 13.0307 6.46267 12.996 7.052C12.9787 7.65867 12.97 8.33467 12.97 9.08C12.97 9.56533 13.0913 9.808 13.334 9.808L13.75 9.782C13.8887 9.76467 14.036 9.756 14.192 9.756C14.868 9.756 15.206 9.912 15.206 10.224C15.206 10.4147 15.1627 10.5793 15.076 10.718C14.9893 10.8393 14.8593 10.9 14.686 10.9C14.426 10.9 14.2267 10.8307 14.088 10.692L13.256 10.562H13.126L12.996 10.692V10.77C13.0307 11.0647 13.048 11.7493 13.048 12.824C13.048 13.5 13.0393 14.1153 13.022 14.67L12.996 16.516C12.996 17.192 13.022 17.8853 13.074 18.596C13.0913 18.9947 13.178 19.2633 13.334 19.402C13.49 19.5233 13.776 19.584 14.192 19.584L14.66 19.558C14.816 19.5407 14.9893 19.532 15.18 19.532C15.6827 19.532 15.934 19.6447 15.934 19.87C15.934 20.182 15.5527 20.338 14.79 20.338H12.658ZM29.0863 21.352C28.7397 21.352 28.5663 20.7973 28.5663 19.688V17.972C28.5663 15.476 28.5143 13.526 28.4103 12.122L28.3323 11.16C28.263 10.7267 28.2283 10.3453 28.2283 10.016C28.2283 9.42667 28.2457 8.88933 28.2803 8.404L28.3323 6.792C28.3323 6.25467 28.2977 5.84733 28.2283 5.57C27.8817 5.81267 26.833 9.46133 25.0823 16.516L25.0563 16.906C25.0043 17.3393 24.935 17.686 24.8483 17.946C24.7963 18.1367 24.7183 18.284 24.6143 18.388C24.5277 18.492 24.4237 18.544 24.3023 18.544C24.025 18.544 23.8257 18.4747 23.7043 18.336C23.583 18.1973 23.5223 17.9807 23.5223 17.686C23.5223 17.218 23.297 16.0047 22.8463 14.046C22.413 12.0873 21.9363 10.2067 21.4163 8.404C20.9137 6.60133 20.567 5.60467 20.3763 5.414C20.359 6.02067 20.2897 7.45067 20.1683 9.704C19.9257 13.6907 19.8043 16.828 19.8043 19.116L19.8303 20.156C19.761 20.3813 19.579 20.494 19.2843 20.494C19.2323 20.494 19.1457 20.442 19.0243 20.338C18.903 20.2513 18.8423 20.182 18.8423 20.13C18.8423 18.57 18.981 15.8313 19.2583 11.914C19.5183 8.274 19.6483 5.544 19.6483 3.724C19.6483 3.63733 19.631 3.55067 19.5963 3.464C19.5443 3.36 19.5183 3.282 19.5183 3.23C19.5183 2.97 19.7437 2.84 20.1943 2.84C20.489 2.84 20.6623 2.97 20.7143 3.23C20.7837 3.57667 20.8183 3.83667 20.8183 4.01L20.8443 4.322C20.931 4.77267 21.1823 5.466 21.5983 6.402C21.9277 7.14733 22.179 7.79733 22.3523 8.352C22.4563 8.768 22.5517 9.106 22.6383 9.366C22.9157 10.3713 23.0977 11.1167 23.1843 11.602L23.5223 12.278C23.5743 12.538 23.6783 12.9627 23.8343 13.552C23.9903 14.2107 24.103 14.748 24.1723 15.164C24.2417 15.58 24.2763 15.9787 24.2763 16.36C24.467 16.0653 25.0043 14.2973 25.8883 11.056C26.7897 7.79733 27.3183 5.71733 27.4743 4.816C27.4917 4.78133 27.5003 4.738 27.5003 4.686C27.5177 4.61667 27.535 4.53 27.5523 4.426C27.587 4.20067 27.665 3.86267 27.7863 3.412C27.925 3.06533 28.133 2.892 28.4103 2.892C28.5317 2.892 28.6703 2.944 28.8263 3.048C28.9823 3.152 29.0603 3.256 29.0603 3.36C29.0603 10.588 29.173 14.41 29.3983 14.826V16.178C29.381 16.5767 29.3723 17.036 29.3723 17.556C29.3723 18.6653 29.433 19.4973 29.5543 20.052C29.5717 20.0693 29.5803 20.0953 29.5803 20.13C29.5977 20.1647 29.615 20.208 29.6323 20.26C29.6497 20.3293 29.6583 20.4073 29.6583 20.494C29.6583 20.6847 29.5977 20.8753 29.4763 21.066C29.3723 21.2567 29.2423 21.352 29.0863 21.352ZM28.2283 5.414H28.2023L28.1503 5.44L28.2283 5.466V5.414ZM34.0623 20.338C33.7503 20.338 33.577 20.156 33.5423 19.792V19.454C33.5596 19.3673 33.5683 19.2633 33.5683 19.142L33.4643 19.038C33.603 18.674 33.6723 18.3187 33.6723 17.972C33.6723 17.5733 33.6463 17.0013 33.5943 16.256L33.5423 14.54C33.5423 13.6733 33.5683 12.3733 33.6203 10.64C33.6896 9.09733 33.7243 7.78867 33.7243 6.714L33.6723 5.154C33.6376 4.686 33.6203 4.166 33.6203 3.594C33.6203 3.334 33.681 3.152 33.8023 3.048C33.9236 2.92667 34.1143 2.866 34.3743 2.866C34.5476 2.866 34.6863 2.918 34.7903 3.022C34.825 3.03933 35.0763 3.074 35.5443 3.126C35.9776 3.178 36.3503 3.256 36.6623 3.36C36.9916 3.464 37.1563 3.594 37.1563 3.75C37.1563 3.92333 36.9916 4.09667 36.6623 4.27C35.6743 3.94067 34.9723 3.776 34.5563 3.776L34.4263 3.932C34.4436 4.088 34.4523 4.46067 34.4523 5.05C34.4523 5.79533 34.435 6.46267 34.4003 7.052C34.383 7.65867 34.3743 8.33467 34.3743 9.08C34.3743 9.56533 34.4956 9.808 34.7383 9.808L35.1543 9.782C35.293 9.76467 35.4403 9.756 35.5963 9.756C36.2723 9.756 36.6103 9.912 36.6103 10.224C36.6103 10.4147 36.567 10.5793 36.4803 10.718C36.3936 10.8393 36.2636 10.9 36.0903 10.9C35.8303 10.9 35.631 10.8307 35.4923 10.692L34.6603 10.562H34.5303L34.4003 10.692V10.77C34.435 11.0647 34.4523 11.7493 34.4523 12.824C34.4523 13.5 34.4436 14.1153 34.4263 14.67L34.4003 16.516C34.4003 17.192 34.4263 17.8853 34.4783 18.596C34.4956 18.9947 34.5823 19.2633 34.7383 19.402C34.8943 19.5233 35.1803 19.584 35.5963 19.584L36.0643 19.558C36.2203 19.5407 36.3936 19.532 36.5843 19.532C37.087 19.532 37.3383 19.6447 37.3383 19.87C37.3383 20.182 36.957 20.338 36.1943 20.338H34.0623ZM41.2606 20.156C40.6193 20.156 40.2986 20.0347 40.2986 19.792C40.2986 19.064 40.3246 17.9633 40.3766 16.49L40.4286 13.214C40.4286 12.0007 40.4026 10.1893 40.3506 7.78C40.2813 5.648 40.2466 3.84533 40.2466 2.372C40.2466 1.124 40.472 0.499998 40.9226 0.499998C42.084 0.499998 42.9766 0.872665 43.6006 1.618C44.242 2.36333 44.5626 3.35133 44.5626 4.582C44.5626 5.96867 44.008 7.40733 42.8986 8.898C43.8173 9.81667 44.4586 10.692 44.8226 11.524C45.204 12.356 45.3946 13.3527 45.3946 14.514C45.3946 15.2247 45.3686 15.7967 45.3166 16.23C45.282 16.646 45.204 17.036 45.0826 17.4C44.9613 17.7813 44.788 18.1107 44.5626 18.388C44.3546 18.6653 44.0686 18.9253 43.7046 19.168C43.358 19.4107 42.9073 19.6533 42.3526 19.896C42.1446 19.948 41.9713 19.9913 41.8326 20.026C41.6073 20.1127 41.434 20.156 41.3126 20.156H41.2606ZM41.2346 8.768C41.616 8.768 41.98 8.60333 42.3266 8.274C42.6733 7.94467 42.9593 7.51133 43.1846 6.974C43.41 6.47133 43.5833 5.95133 43.7046 5.414C43.826 4.85933 43.8866 4.35667 43.8866 3.906C43.8866 3.29933 43.6613 2.72733 43.2106 2.19C42.7773 1.65267 42.2833 1.384 41.7286 1.384C41.278 1.384 41.0526 1.75667 41.0526 2.502C41.0526 3.66333 41.07 4.70333 41.1046 5.622L41.1566 8.742L41.2346 8.768ZM41.4426 19.142C42.032 19.142 42.5693 18.9687 43.0546 18.622C43.5573 18.258 43.9473 17.7813 44.2246 17.192C44.5193 16.6027 44.6666 15.97 44.6666 15.294C44.6666 12.1913 43.9213 10.328 42.4306 9.704C42.292 9.704 42.0666 9.74733 41.7546 9.834C41.46 9.938 41.2606 9.99 41.1566 9.99C41.2433 12.8153 41.2866 15.8573 41.2866 19.116H41.3646L41.4426 19.142ZM51.3295 20.39C51.0522 20.39 50.7489 20.2947 50.4195 20.104C50.1075 19.9307 49.8475 19.7227 49.6395 19.48C49.3969 19.168 49.2062 18.2927 49.0675 16.854C48.9289 15.4153 48.8422 13.7687 48.8075 11.914C48.8075 11.498 48.7989 11.186 48.7815 10.978C48.7469 6.62733 48.6775 4.05333 48.5735 3.256L48.7295 2.892C49.1282 2.944 49.3275 3.42067 49.3275 4.322L49.4055 11.212C49.4055 11.6973 49.4489 12.616 49.5355 13.968C49.6395 15.1813 49.6915 16.1 49.6915 16.724C49.6915 18.7 50.3415 19.688 51.6415 19.688C52.4389 19.688 52.9502 17.868 53.1755 14.228L53.2015 13.708C53.3229 8.94133 53.3835 5.414 53.3835 3.126L53.3575 2.892C53.3402 2.82267 53.3315 2.74467 53.3315 2.658C53.3315 2.46733 53.4789 2.372 53.7735 2.372C53.9815 2.372 54.1115 2.424 54.1635 2.528C54.1982 2.70133 54.2155 3.00467 54.2155 3.438C54.2155 4.75533 54.1635 5.63933 54.0595 6.09L54.0855 6.246C54.0855 6.47133 54.0595 6.818 54.0075 7.286L53.9555 8.326V8.586C53.9729 8.65533 53.9815 8.742 53.9815 8.846C53.9469 9.262 53.9295 9.66067 53.9295 10.042C53.9122 10.1633 53.9035 10.354 53.9035 10.614C53.8689 12.2607 53.8342 13.6907 53.7995 14.904C53.7475 16.412 53.5395 17.686 53.1755 18.726C52.7942 19.8353 52.1789 20.39 51.3295 20.39ZM60.045 20.182C59.7157 20.078 59.4297 19.9307 59.187 19.74C58.9617 19.5493 58.745 19.2633 58.537 18.882C58.173 18.1887 57.9564 17.192 57.887 15.892C57.8524 15.3027 57.835 14.7827 57.835 14.332V11.368C57.835 10.2413 57.8697 9.14933 57.939 8.092C57.991 7.312 58.069 6.65333 58.173 6.116C58.277 5.57867 58.4417 5.04133 58.667 4.504C58.9097 3.94933 59.1784 3.55933 59.473 3.334C59.5944 3.23 59.8284 3.10867 60.175 2.97C60.4004 2.88333 60.617 2.788 60.825 2.684H61.865H61.943C61.9604 2.70133 61.9864 2.71 62.021 2.71L62.151 2.736L62.255 2.814C62.307 2.866 62.333 2.90067 62.333 2.918C62.3504 2.95267 62.359 3.00467 62.359 3.074L62.021 3.464H60.929C60.5997 3.464 60.2964 3.62867 60.019 3.958C59.759 4.27 59.5597 4.66867 59.421 5.154C59.2824 5.58733 59.1697 6.09867 59.083 6.688C58.9964 7.27733 58.9444 7.78867 58.927 8.222C58.8924 8.77667 58.875 9.158 58.875 9.366L58.823 9.496C58.823 10.4667 58.8057 11.342 58.771 12.122L58.719 14.748C58.719 15.5107 58.771 16.2127 58.875 16.854C58.9617 17.5473 59.213 18.1713 59.629 18.726C60.0277 19.2807 60.643 19.558 61.475 19.558C61.735 19.558 61.9517 19.48 62.125 19.324C62.385 19.324 62.515 19.4193 62.515 19.61C62.515 19.7313 62.4024 19.87 62.177 20.026C61.969 20.1993 61.7524 20.3293 61.527 20.416H60.669L60.045 20.182ZM71.2291 20.468C70.8131 20.468 70.3191 19.688 69.7471 18.128C69.2098 16.6893 68.7418 15.1293 68.3431 13.448C67.9444 11.7667 67.7278 10.588 67.6931 9.912L67.6151 9.808L67.2251 10.64C67.0344 11.004 66.8871 11.3073 66.7831 11.55C66.6964 11.7753 66.6098 12.0613 66.5231 12.408C66.4191 12.7373 66.3671 13.0753 66.3671 13.422C66.3671 13.7687 66.3498 14.0807 66.3151 14.358L66.2631 15.294V18.622C66.2631 18.778 66.2891 19.0293 66.3411 19.376C66.3931 19.688 66.4191 19.9307 66.4191 20.104C66.4191 20.1907 66.3758 20.26 66.2891 20.312C66.2024 20.3813 66.1071 20.416 66.0031 20.416C65.7778 20.416 65.6218 20.3813 65.5351 20.312C65.4658 20.2427 65.4311 20.0953 65.4311 19.87V14.982C65.4311 14.7047 65.4744 14.1587 65.5611 13.344C65.6478 12.5293 65.6911 11.9833 65.6911 11.706C65.6911 10.978 65.7344 10.1373 65.8211 9.184C65.8904 8.21333 65.9251 7.38133 65.9251 6.688V3.074C66.0291 2.88333 66.1938 2.788 66.4191 2.788C66.5578 2.788 66.6704 2.84 66.7571 2.944C66.8611 3.03067 66.9131 3.14333 66.9131 3.282C66.7744 3.594 66.7051 4.01 66.7051 4.53L66.6531 7.26C66.6184 8.092 66.6011 9.01067 66.6011 10.016C66.7744 9.964 67.4504 8.768 68.6291 6.428C69.8078 4.10533 70.4578 2.944 70.5791 2.944C71.0298 2.944 71.2551 3.09133 71.2551 3.386C70.1458 5.03267 69.2271 6.636 68.4991 8.196L68.4731 9.028C68.4558 9.27067 68.4471 9.548 68.4471 9.86C68.4471 10.6227 68.7418 12.0527 69.3311 14.15C69.9204 16.2473 70.4231 17.7033 70.8391 18.518C71.0298 18.778 71.1424 18.9253 71.1771 18.96C71.3504 19.2027 71.4718 19.4107 71.5411 19.584C71.6278 19.74 71.6711 19.9047 71.6711 20.078C71.6711 20.1993 71.6278 20.2947 71.5411 20.364C71.4544 20.4333 71.3504 20.468 71.2291 20.468ZM74.6111 20.338C74.2991 20.338 74.1258 20.156 74.0911 19.792V19.454C74.1085 19.3673 74.1171 19.2633 74.1171 19.142L74.0131 19.038C74.1518 18.674 74.2211 18.3187 74.2211 17.972C74.2211 17.5733 74.1951 17.0013 74.1431 16.256L74.0911 14.54C74.0911 13.6733 74.1171 12.3733 74.1691 10.64C74.2385 9.09733 74.2731 7.78867 74.2731 6.714L74.2211 5.154C74.1865 4.686 74.1691 4.166 74.1691 3.594C74.1691 3.334 74.2298 3.152 74.3511 3.048C74.4725 2.92667 74.6631 2.866 74.9231 2.866C75.0965 2.866 75.2351 2.918 75.3391 3.022C75.3738 3.03933 75.6251 3.074 76.0931 3.126C76.5265 3.178 76.8991 3.256 77.2111 3.36C77.5405 3.464 77.7051 3.594 77.7051 3.75C77.7051 3.92333 77.5405 4.09667 77.2111 4.27C76.2231 3.94067 75.5211 3.776 75.1051 3.776L74.9751 3.932C74.9925 4.088 75.0011 4.46067 75.0011 5.05C75.0011 5.79533 74.9838 6.46267 74.9491 7.052C74.9318 7.65867 74.9231 8.33467 74.9231 9.08C74.9231 9.56533 75.0445 9.808 75.2871 9.808L75.7031 9.782C75.8418 9.76467 75.9891 9.756 76.1451 9.756C76.8211 9.756 77.1591 9.912 77.1591 10.224C77.1591 10.4147 77.1158 10.5793 77.0291 10.718C76.9425 10.8393 76.8125 10.9 76.6391 10.9C76.3791 10.9 76.1798 10.8307 76.0411 10.692L75.2091 10.562H75.0791L74.9491 10.692V10.77C74.9838 11.0647 75.0011 11.7493 75.0011 12.824C75.0011 13.5 74.9925 14.1153 74.9751 14.67L74.9491 16.516C74.9491 17.192 74.9751 17.8853 75.0271 18.596C75.0445 18.9947 75.1311 19.2633 75.2871 19.402C75.4431 19.5233 75.7291 19.584 76.1451 19.584L76.6131 19.558C76.7691 19.5407 76.9425 19.532 77.1331 19.532C77.6358 19.532 77.8871 19.6447 77.8871 19.87C77.8871 20.182 77.5058 20.338 76.7431 20.338H74.6111ZM82.4855 19.636L82.4595 18.674C82.4421 18.3967 82.4335 18.0847 82.4335 17.738C82.4335 17.5647 82.4421 17.4173 82.4595 17.296L82.4855 16.828C82.4855 16.6547 82.4508 16.4467 82.3815 16.204C82.3815 15.0427 82.2948 12.8847 82.1215 9.73C81.9481 6.67933 81.8528 4.608 81.8355 3.516C80.7608 3.516 80.0415 3.49 79.6775 3.438C79.3308 3.35133 79.1575 3.21267 79.1575 3.022C79.2441 2.83133 79.4088 2.736 79.6515 2.736C80.1715 2.736 80.9255 2.77067 81.9135 2.84C82.8148 2.92667 83.5688 2.97 84.1755 2.97H84.7215L85.2675 2.944C85.5795 2.944 85.7355 3.05667 85.7355 3.282C85.7355 3.386 85.6748 3.47267 85.5535 3.542C85.4495 3.594 85.3195 3.62 85.1635 3.62C84.8168 3.62 84.4528 3.60267 84.0715 3.568L82.9535 3.516C82.8841 3.516 82.8495 3.542 82.8495 3.594C82.8321 3.646 82.8235 3.81067 82.8235 4.088C82.8235 5.76933 82.9275 8.31733 83.1355 11.732C83.3261 15.268 83.4215 17.8073 83.4215 19.35C83.4215 19.4713 83.3435 19.584 83.1875 19.688C83.0488 19.792 82.9101 19.844 82.7715 19.844L82.4855 19.636Z" fill="black"/>
</svg>
